<?xml version="1.0" encoding="utf-8"?>
<!-- Generator: Adobe Illustrator 16.0.0, SVG Export Plug-In . SVG Version: 6.00 Build 0)  -->
<!DOCTYPE svg PUBLIC "-//W3C//DTD SVG 1.1//EN" "http://www.w3.org/Graphics/SVG/1.1/DTD/svg11.dtd">
<svg version="1.1" id="Layer_1" xmlns="http://www.w3.org/2000/svg" xmlns:xlink="http://www.w3.org/1999/xlink" x="0px" y="0px"
	 width="456.127px" height="176.116px" viewBox="0 0 456.127 176.116" enable-background="new 0 0 456.127 176.116"
	 xml:space="preserve">
<g>
	<path fill-rule="evenodd" clip-rule="evenodd" fill="#FFFFFF" d="M456.126,176.04c-19.166,0.002-38.332-0.072-57.496,0.076
		c-3.197,0.023-5.166-0.969-6.993-3.584c-10.39-14.871-21.062-29.547-31.369-44.475c-2.372-3.438-4.925-4.613-9.021-4.555
		c-15.832,0.232-31.67,0.209-47.502,0.012c-3.75-0.047-5.088,0.713-5.008,4.809c0.277,14.33-0.02,28.67,0.195,43.002
		c0.055,3.645-0.742,4.801-4.609,4.742c-16.164-0.24-32.337-0.244-48.502,0.002c-3.904,0.061-4.599-1.166-4.58-4.766
		c0.146-29.17,0.179-58.34-0.027-87.508c-0.029-4.177,1.375-4.786,5.068-4.778c49.004,0.113,98.009,0.006,147.014,0.191
		c4.457,0.018,5.653-1.104,5.345-5.441c-0.448-6.303,0.06-12.673-0.388-18.978c-0.551-7.774-3.076-9.848-10.749-9.85
		c-27.837-0.006-55.673,0.079-83.509-0.095c-3.935-0.025-5.496,0.584-5.271,4.999c0.406,7.977,0.102,7.993-8.066,7.993
		c-15.002,0-30.004-0.115-45.004,0.084c-3.531,0.047-4.435-0.949-4.415-4.44c0.101-17.825-0.079-35.652-0.161-53.479
		c61.014,0,122.027,0,183.041,0c0.178,0.799,0.779,0.865,1.467,0.969c14.326,2.173,25.703,8.275,30.541,23.037
		c0,25.338,0,50.679,0,76.016c-6.902,16.234-21.861,19.752-37.295,23.188c10.568,14.943,20.871,29.598,31.289,44.168
		c1.881,2.633,3.176,5.762,6.006,7.662C456.126,175.374,456.126,175.708,456.126,176.04z"/>
	<path fill-rule="evenodd" clip-rule="evenodd" fill="#FFFFFF" d="M215.121,0.023c-0.111,1.817-0.32,3.635-0.32,5.452
		c-0.018,55.003-0.082,110.006,0.107,165.008c0.016,4.74-1.389,5.678-5.791,5.605c-15.83-0.26-31.668-0.211-47.5-0.018
		c-3.495,0.041-4.465-0.867-4.414-4.396c0.208-14.496-0.008-29,0.159-43.498c0.037-3.256-0.438-4.574-4.198-4.553
		c-30.5,0.168-61.002,0.143-91.503,0.023c-3.267-0.012-4.257,0.842-4.217,4.172c0.176,14.664,0.082,29.334,0.069,44
		c-0.002,2.066,0.668,4.277-2.98,4.234c-17.827-0.213-35.656-0.193-53.485-0.256c-0.254-0.24-0.508-0.48-0.763-0.721
		C0.214,144.114,0.196,113.153,0,82.192c-0.023-3.572,1.994-3.031,4.129-3.031c27.305,0.01,54.611,0.006,81.917,0.006
		c22.477,0,44.954-0.023,67.432,0.035c2.407,0.006,3.921,0.039,3.894-3.271c-0.209-25.301-0.203-50.604-0.264-75.907
		C176.445,0.023,195.783,0.023,215.121,0.023z"/>
	<path fill-rule="evenodd" clip-rule="evenodd" fill="#FFFFFF" d="M57.063,0.038c0.062,18.289,0.083,36.577,0.23,54.864
		c0.02,2.5-0.944,3.022-3.221,3.012c-16.962-0.077-33.925-0.137-50.886,0.037c-3.443,0.035-3.16-1.781-3.156-4.034
		c0.032-17.96,0.019-35.919,0.02-53.88C19.055,0.038,38.059,0.038,57.063,0.038z"/>
</g>
</svg>
