<?xml version="1.0" encoding="utf-8"?>
<!-- Generator: Adobe Illustrator 23.1.1, SVG Export Plug-In . SVG Version: 6.00 Build 0)  -->
<svg version="1.1" id="Capa_1" xmlns="http://www.w3.org/2000/svg" xmlns:xlink="http://www.w3.org/1999/xlink" x="0px" y="0px"
	 viewBox="0 0 164.72 93.73" style="enable-background:new 0 0 164.72 93.73;" xml:space="preserve">
<style type="text/css">
	.st0{fill:#9D9D9C;}
	.st1{fill:none;stroke:#9D9D9C;stroke-width:0.191;stroke-miterlimit:3.864;}
	.st2{fill:#FFD500;}
	.st3{fill:none;stroke:#FFD500;stroke-width:0.191;stroke-miterlimit:3.864;}
</style>
<path class="st0" d="M140.8,58.78c-7.13,5.21-24.11,14.91-50.54,16.58c-10.38,0.65-27.34,2.14-54.8-7.9
	c23.49,8.71,53.77,5.08,53.77,5.08s-20.47,2,0,0c20.47-2,36.2-13.76,36.2-13.76H140.8z"/>
<path class="st1" d="M140.8,58.78c-7.13,5.21-24.11,14.91-50.54,16.58c-10.38,0.65-27.34,2.14-54.8-7.9
	c23.49,8.71,53.77,5.08,53.77,5.08s-20.47,2,0,0c20.47-2,36.2-13.76,36.2-13.76H140.8z"/>
<path class="st2" d="M31.61,36.38c7.13-5.21,24.11-14.91,50.54-16.58c10.38-0.65,27.34-2.14,54.79,7.9
	c-23.49-8.72-53.77-5.08-53.77-5.08s20.47-2,0,0c-20.47,2-36.2,13.76-36.2,13.76H31.61z"/>
<path class="st3" d="M31.61,36.38c7.13-5.21,24.11-14.91,50.54-16.58c10.38-0.65,27.34-2.14,54.79,7.9
	c-23.49-8.72-53.77-5.08-53.77-5.08s20.47-2,0,0c-20.47,2-36.2,13.76-36.2,13.76H31.61z"/>
<polygon points="29.95,40.72 24.1,55.42 28.27,55.42 34.12,40.72 "/>
<polygon points="31.51,55.42 35.34,55.42 39.21,45.37 39.25,45.37 40.72,55.42 45.89,55.42 51.74,40.72 47.94,40.72 44.03,50.7 
	43.98,50.7 42.67,40.72 37.36,40.72 "/>
<polygon points="51.7,55.42 55.87,55.42 60.57,43.62 64.42,43.62 65.58,40.72 53.7,40.72 52.55,43.62 56.4,43.62 "/>
<polygon points="61.46,55.42 72.73,55.42 73.84,52.64 66.73,52.64 68.06,49.31 74.53,49.31 75.64,46.53 69.16,46.53 70.37,43.5 
	77.23,43.5 78.34,40.72 67.31,40.72 "/>
<polygon points="91.32,55.42 95.49,55.42 97.84,49.49 103.87,49.49 104.98,46.71 98.95,46.71 100.23,43.49 106.53,43.49 
	107.63,40.71 97.17,40.71 "/>
<polygon points="103.99,55.42 114.61,55.42 115.76,52.51 109.31,52.51 114.01,40.71 109.84,40.71 "/>
<polygon points="115.85,55.42 127.12,55.42 128.23,52.63 121.13,52.63 122.45,49.31 128.93,49.31 130.03,46.52 123.56,46.52 
	124.77,43.49 131.62,43.49 132.73,40.71 121.71,40.71 "/>
<polygon points="134.6,40.72 136.7,47.66 127.84,55.43 132.51,55.43 137.78,50.77 139.09,55.4 143.73,55.41 141.23,47.74 
	148.66,40.73 143.89,40.73 140.15,44.65 139.38,40.71 "/>
<path d="M92.66,44.11c-0.05,0.91-0.53,2.19-1.33,3.19c0,0-1.59,1.7-3.35,1.99l1.53,6.1h-4.06l-1.64-8.88h2.29
	c2.37,0,2.46-1.8,2.46-1.8c0.23-1.33-1.48-1.26-1.48-1.26l-2.53,0.01L79.84,55.4h-4.19l5.9-14.69h7.62c0.04,0,0.06,0,0.1,0
	c1.23,0,2.3,0.35,2.74,0.98l-0.09-0.13c0.26,0.3,0.76,0.91,0.76,2.12c0,0.25-0.03,0.55-0.06,0.76L92.66,44.11z"/>
</svg>
