<?xml version="1.0" encoding="utf-8"?>
<!-- Generator: Adobe Illustrator 23.1.1, SVG Export Plug-In . SVG Version: 6.00 Build 0)  -->
<svg version="1.1" id="Capa_1" xmlns="http://www.w3.org/2000/svg" xmlns:xlink="http://www.w3.org/1999/xlink" x="0px" y="0px"
	 viewBox="0 0 164.7 93.7" style="enable-background:new 0 0 164.7 93.7;" xml:space="preserve">
<style type="text/css">
	.st0{fill:#9D9D9C;}
	.st1{fill:#FFD500;}
</style>
<path class="st0" d="M125.4,58.7L125.4,58.7c-0.2,0.1-16,11.8-36.2,13.8l-1.9,0.2c-6.9,0.6-31.2,2-50.9-4.9
	c-0.3-0.1-0.6-0.2-0.9-0.3l-0.1,0.2c0.3,0.1,0.6,0.2,0.9,0.3c18.6,6.7,32.4,8,42.5,8c4,0,7.5-0.2,10.3-0.4l1.1-0.1
	c27.5-1.7,44.6-12.2,50.6-16.6l0.2-0.2H125.4z"/>
<path class="st1" d="M137,27.6c-0.3-0.1-0.7-0.2-1-0.4c-26-9.3-42.7-8.3-52.8-7.6l-1.1,0.1c-27.5,1.7-44.6,12.2-50.6,16.6l-0.2,0.2
	H47l0,0c0.2-0.1,15.9-11.8,36.2-13.7l2-0.2c7-0.6,31.2-2,50.8,4.9c0.3,0.1,0.7,0.2,1,0.4v0L137,27.6z"/>
<polygon points="30,40.7 24.1,55.4 28.3,55.4 34.1,40.7 "/>
<polygon points="31.5,55.4 35.3,55.4 39.2,45.4 39.2,45.4 40.7,55.4 45.9,55.4 51.7,40.7 47.9,40.7 44,50.7 44,50.7 42.7,40.7 
	37.4,40.7 "/>
<polygon points="51.7,55.4 55.9,55.4 60.6,43.6 64.4,43.6 65.6,40.7 53.7,40.7 52.5,43.6 56.4,43.6 "/>
<polygon points="61.5,55.4 72.7,55.4 73.8,52.6 66.7,52.6 68.1,49.3 74.5,49.3 75.6,46.5 69.2,46.5 70.4,43.5 77.2,43.5 78.3,40.7 
	67.3,40.7 "/>
<polygon points="91.3,55.4 95.5,55.4 97.8,49.5 103.9,49.5 105,46.7 98.9,46.7 100.2,43.5 106.5,43.5 107.6,40.7 97.2,40.7 "/>
<polygon points="104,55.4 114.6,55.4 115.8,52.5 109.3,52.5 114,40.7 109.8,40.7 "/>
<polygon points="115.8,55.4 127.1,55.4 128.2,52.6 121.1,52.6 122.4,49.3 128.9,49.3 130,46.5 123.6,46.5 124.8,43.5 131.6,43.5 
	132.7,40.7 121.7,40.7 "/>
<polygon points="134.6,40.7 136.7,47.7 127.8,55.4 132.5,55.4 137.8,50.8 139.1,55.4 143.7,55.4 141.2,47.7 148.7,40.7 143.9,40.7 
	140.1,44.6 139.4,40.7 "/>
<path d="M92.7,44.1c-0.1,0.9-0.5,2.2-1.3,3.2c0,0-1.6,1.7-3.3,2l1.5,6.1h-4.1l-1.6-8.9h2.3c2.4,0,2.5-1.8,2.5-1.8
	c0.2-1.3-1.5-1.3-1.5-1.3l-2.5,0l-4.7,11.9h-4.2l5.9-14.7h7.6c0,0,0.1,0,0.1,0c1.2,0,2.3,0.3,2.7,1l-0.1-0.1
	c0.3,0.3,0.8,0.9,0.8,2.1c0,0.2,0,0.5-0.1,0.8L92.7,44.1z"/>
</svg>
